<?xml version="1.0" encoding="UTF-8" standalone="no"?>
<!DOCTYPE svg PUBLIC "-//W3C//DTD SVG 1.1//EN" "http://www.w3.org/Graphics/SVG/1.1/DTD/svg11.dtd">
<svg width="100%" height="100%" viewBox="0 0 400 60" version="1.1" xmlns="http://www.w3.org/2000/svg" xmlns:xlink="http://www.w3.org/1999/xlink" xml:space="preserve" xmlns:serif="http://www.serif.com/" style="fill-rule:evenodd;clip-rule:evenodd;stroke-linejoin:round;stroke-miterlimit:2;">
    <g transform="matrix(1.70255,0,0,1.70255,9.92974,0.669907)">
        <g>
            <path d="M31.1,22.1L34.8,22.1L34.8,30.8L31.1,30.8L31.1,27.7L28.6,27.7L28.6,30.8L24.9,30.8L24.9,22.1L28.6,22.1L28.6,25.1L31.1,25.1L31.1,22.1ZM17,24.1C17,23.6 16.6,23.4 16,23.4C15.4,23.4 14.9,23.6 14.9,24.1C14.9,24.6 15.5,24.9 15.9,25.1C16.4,24.8 17,24.6 17,24.1ZM15.1,27.4C14.8,27.7 14.6,27.9 14.6,28.3C14.6,28.9 15.3,29.1 15.9,29.1C16.3,29.1 16.7,28.9 17.1,28.7L15.1,27.4ZM23.1,25.8C22.8,26.9 22.1,27.8 21.3,28.5C22.3,29.2 23.3,30 24.2,30.8L19.5,30.8L19,30.2C18,30.7 16.7,30.9 15.6,30.9C13.7,30.9 11.3,30.4 11.3,28.3C11.3,27.2 12.2,26.5 13.3,26.1C12.5,25.6 11.9,25.1 11.9,24.2C11.9,22.3 14.1,21.9 16.1,21.9C17.9,21.9 20.3,22.1 20.3,23.8C20.3,24.9 18.8,25.7 17.7,26C18.2,26.3 18.6,26.6 19,26.9C19.3,26.6 19.6,26.2 19.7,25.8L23.1,25.8ZM3.8,25.5L6.1,22.1L10.3,22.1L7,26.2L10.6,30.8L6.3,30.8L3.9,27.1L3.9,30.8L0.1,30.8L0.1,22.1L3.8,22.1L3.8,25.5" style="fill:rgb(0,55,104);fill-rule:nonzero;"/>
            <g>
                <path d="M17.7,15.5C21,15.5 23.7,12.8 23.7,9.5C23.7,6.2 21,3.5 17.7,3.5C14.4,3.5 11.7,6.2 11.7,9.5C11.7,12.8 14.4,15.5 17.7,15.5" style="fill:rgb(0,173,238);fill-rule:nonzero;"/>
                <path d="M22.1,14.3C21,15.5 18.9,16.8 16.3,16.8C14.3,16.8 12.6,16 11.5,15.1C5,15.9 0.1,16.8 0.1,16.8L0.1,19.5L34.9,19.5L34.9,14C34.9,14 28.9,14 22.1,14.3" style="fill:rgb(0,173,238);fill-rule:nonzero;"/>
            </g>
        </g>
    </g>
    <g transform="matrix(0.140713,0,0,0.14862,81,-5)">
        <g>
            <path d="M750,443.234C750,458.659 737.603,471 722.107,471L27.893,471C12.397,471 0,458.659 0,443.234L0,27.766C0,12.341 12.397,0 27.893,0L722.107,0C737.603,0 750,12.341 750,27.766L750,443.234Z" style="fill:none;fill-rule:nonzero;"/>
            <rect x="306.316" y="112.067" width="137.375" height="246.867" style="fill:rgb(255,95,0);"/>
            <path d="M315.039,235.5C314.995,187.359 337.134,141.788 375.004,112.067C347.343,90.327 313.163,78.502 277.982,78.5C191.855,78.5 120.982,149.372 120.982,235.5C120.982,321.628 191.855,392.5 277.982,392.5C313.163,392.498 347.343,380.673 375.004,358.933C337.134,329.211 314.995,283.64 315.039,235.5Z" style="fill:rgb(235,0,27);fill-rule:nonzero;"/>
            <path d="M629.018,235.494L629.018,235.506C629.018,321.63 558.148,392.5 472.024,392.5C436.843,392.498 402.664,380.672 375.004,358.933C412.839,329.183 434.968,283.631 434.968,235.5C434.968,187.369 412.839,141.817 375.004,112.067C402.664,90.328 436.843,78.502 472.024,78.5C558.148,78.5 629.018,149.37 629.018,235.494ZM614.039,332.786L614.039,327.732L616.077,327.732L616.077,326.703L610.887,326.703L610.887,327.732L612.926,327.732L612.926,332.786L614.039,332.786ZM624.115,332.786L624.115,326.693L622.524,326.693L620.695,330.884L618.864,326.693L617.272,326.693L617.272,332.786L618.396,332.786L618.396,328.19L620.112,332.153L621.277,332.153L622.993,328.18L622.993,332.786L624.115,332.786Z" style="fill:rgb(247,158,27);fill-rule:nonzero;"/>
        </g>
    </g>
    <g transform="matrix(0.13262,0,0,0.13262,186.535,-2.27817)">
        <g>
            <path d="M750,443.234C750,458.659 737.603,471 722.107,471L27.893,471C12.397,471 0,458.659 0,443.234L0,27.766C0,12.341 12.397,0 27.893,0L722.107,0C737.603,0 750,12.341 750,27.766L750,443.234Z" style="fill:none;fill-rule:nonzero;"/>
            <path d="M285.204,421.876L285.204,398.451C285.226,398.131 285.237,397.81 285.237,397.49C285.237,389.886 278.981,383.63 271.377,383.63C271.106,383.63 270.834,383.638 270.563,383.654C265.315,383.314 260.279,385.861 257.445,390.291C254.861,385.993 250.118,383.442 245.108,383.654C240.745,383.436 236.578,385.549 234.176,389.198L234.176,384.591L226.056,384.591L226.056,421.876L234.254,421.876L234.254,401.223C234.197,400.817 234.168,400.407 234.168,399.997C234.168,395.221 238.098,391.291 242.874,391.291C243.046,391.291 243.218,391.296 243.39,391.306C248.778,391.306 251.511,394.82 251.511,401.144L251.511,421.876L259.71,421.876L259.71,401.223C259.66,400.844 259.635,400.462 259.635,400.08C259.635,395.261 263.6,391.296 268.419,391.296C268.561,391.296 268.704,391.299 268.845,391.306C274.389,391.306 277.044,394.82 277.044,401.144L277.044,421.876L285.204,421.876ZM330.883,403.253L330.883,384.63L322.684,384.63L322.684,389.159C319.892,385.558 315.525,383.52 310.971,383.693C300.263,383.693 291.451,392.505 291.451,403.214C291.451,413.923 300.263,422.735 310.971,422.735C315.524,422.908 319.891,420.87 322.684,417.269L322.684,421.798L330.805,421.798L330.883,403.253ZM300.703,403.253C301.053,397.323 306.027,392.634 311.967,392.634C318.157,392.634 323.25,397.727 323.25,403.917C323.25,410.084 318.193,415.167 312.026,415.2C311.939,415.202 311.851,415.203 311.764,415.203C305.638,415.203 300.598,410.162 300.598,404.037C300.598,403.775 300.607,403.514 300.625,403.253L300.703,403.253ZM504.384,383.732C507.058,383.725 509.708,384.229 512.193,385.215C514.565,386.165 516.727,387.571 518.557,389.354C520.363,391.12 521.797,393.232 522.773,395.562C524.811,400.566 524.811,406.174 522.773,411.178C521.798,413.509 520.364,415.62 518.557,417.386C516.727,419.168 514.565,420.574 512.193,421.524C507.046,423.524 501.332,423.524 496.186,421.524C493.825,420.575 491.676,419.169 489.861,417.386C488.072,415.613 486.652,413.503 485.683,411.178C483.65,406.173 483.65,400.567 485.683,395.562C486.652,393.237 488.072,391.127 489.861,389.354C491.676,387.571 493.825,386.164 496.186,385.215C498.76,384.148 501.52,383.605 504.306,383.615L504.384,383.732ZM504.384,391.54C502.794,391.519 501.216,391.81 499.738,392.399C498.347,392.957 497.085,393.794 496.03,394.859C494.953,395.98 494.116,397.308 493.57,398.763C492.378,401.879 492.378,405.329 493.57,408.445C494.115,409.901 494.952,411.229 496.03,412.349C497.084,413.415 498.346,414.252 499.738,414.809C502.712,415.973 506.017,415.973 508.991,414.809C510.45,414.27 511.78,413.432 512.896,412.349C513.975,411.231 514.812,409.901 515.355,408.445C516.548,405.329 516.548,401.879 515.355,398.763C514.812,397.307 513.975,395.978 512.896,394.859C511.78,393.776 510.45,392.938 508.991,392.399C507.518,391.725 505.925,391.353 504.306,391.306L504.384,391.54ZM375,403.253C375,391.54 367.738,383.732 357.314,383.732C346.708,383.88 338.065,392.646 338.065,403.253C338.065,413.963 346.877,422.776 357.587,422.776L357.861,422.774C363.417,422.963 368.853,421.099 373.126,417.542L369.222,411.53C366.139,414.002 362.319,415.376 358.368,415.434C352.821,415.911 347.833,411.829 347.202,406.298L374.883,406.298C375,405.322 375,404.346 375,403.253ZM347.241,399.973C347.553,394.854 351.913,390.841 357.041,390.955C357.107,390.953 357.172,390.952 357.238,390.952C362.241,390.952 366.384,395.01 366.489,400.012L347.241,399.973ZM409.162,394.117C405.597,392.064 401.563,390.962 397.449,390.916C392.998,390.916 390.343,392.555 390.343,395.288C390.343,398.021 393.154,398.49 396.668,398.958L400.572,399.505C408.693,400.676 413.612,404.112 413.612,410.671C413.612,417.23 407.366,422.852 396.629,422.852C390.876,423.004 385.223,421.307 380.505,418.011L384.409,411.686C387.991,414.343 392.366,415.718 396.824,415.59C402.368,415.59 405.335,413.95 405.335,411.061C405.335,408.953 403.227,407.782 398.776,407.157L394.872,406.61C386.517,405.439 381.988,401.691 381.988,395.601C381.988,388.183 388.079,383.654 397.605,383.654C402.936,383.475 408.208,384.83 412.792,387.558L409.162,394.117ZM448.203,392.009L434.968,392.009L434.968,408.836C434.968,412.74 436.296,415.082 440.356,415.082C442.89,414.998 445.362,414.273 447.54,412.974L449.882,419.924C446.838,421.823 443.319,422.825 439.731,422.813C430.127,422.813 426.769,417.659 426.769,408.992L426.769,392.009L419.195,392.009L419.195,384.591L426.769,384.591L426.769,373.269L434.968,373.269L434.968,384.591L448.203,384.591L448.203,392.009ZM476.274,383.654C478.244,383.661 480.198,384.005 482.053,384.669L479.554,392.477C477.94,391.834 476.215,391.515 474.478,391.54C469.169,391.54 466.67,394.976 466.67,401.144L466.67,422.032L458.549,422.032L458.549,384.747L466.592,384.747L466.592,389.276C468.621,385.795 472.404,383.694 476.431,383.81L476.274,383.654ZM532.416,416.449C532.924,416.443 533.428,416.535 533.9,416.722C534.348,416.905 534.759,417.17 535.11,417.503C535.453,417.84 535.731,418.237 535.93,418.674C536.33,419.595 536.33,420.642 535.93,421.563C535.731,422.001 535.453,422.398 535.11,422.735C534.759,423.068 534.348,423.332 533.9,423.515C533.433,423.722 532.927,423.828 532.416,423.828C530.908,423.815 529.537,422.931 528.903,421.563C528.508,420.641 528.508,419.596 528.903,418.674C529.102,418.237 529.38,417.84 529.723,417.503C530.074,417.17 530.485,416.905 530.933,416.722C531.344,416.559 531.779,416.466 532.221,416.449L532.416,416.449ZM532.416,423.047C533.182,423.051 533.917,422.74 534.447,422.188C534.984,421.647 535.285,420.915 535.285,420.153C535.285,419.005 534.601,417.961 533.549,417.503C533.192,417.347 532.806,417.268 532.416,417.269C532.027,417.271 531.642,417.35 531.284,417.503C530.933,417.647 530.615,417.859 530.347,418.128C529.345,419.229 529.345,420.931 530.347,422.032C530.893,422.584 531.639,422.894 532.416,422.891L532.416,423.047ZM532.651,418.401C533.015,418.383 533.374,418.494 533.666,418.713C533.908,418.914 534.039,419.219 534.017,419.533C534.028,419.795 533.929,420.05 533.744,420.236C533.518,420.441 533.229,420.565 532.924,420.587L534.056,421.876L533.158,421.876L532.104,420.587L531.753,420.587L531.753,421.876L531.011,421.876L531.011,418.284L532.651,418.401ZM531.792,419.065L531.792,420.002L532.651,420.002C532.804,420.047 532.966,420.047 533.119,420.002C533.175,419.891 533.175,419.761 533.119,419.65C533.175,419.54 533.175,419.409 533.119,419.299C532.966,419.253 532.804,419.253 532.651,419.299L531.792,419.065Z" style="fill-rule:nonzero;"/>
            <rect x="313.509" y="100.132" width="122.982" height="221.016" style="fill:rgb(118,115,192);"/>
            <path d="M321.318,210.66C321.272,167.554 341.092,126.747 375,100.132C350.239,80.676 319.644,70.092 288.153,70.09C211.049,70.09 147.602,133.536 147.602,210.64C147.602,287.744 211.049,351.191 288.153,351.191C319.644,351.189 350.239,340.605 375,321.148C341.102,294.542 321.284,253.752 321.318,210.66Z" style="fill:rgb(235,0,27);fill-rule:nonzero;"/>
            <path d="M588.988,297.723L588.988,293.35L590.823,293.35L590.823,292.413L586.177,292.413L586.177,293.35L588.012,293.35L588.012,297.879L588.988,297.723ZM598.007,297.723L598.007,292.257L596.601,292.257L594.961,296.161L593.322,292.257L591.877,292.257L591.877,297.723L592.892,297.723L592.892,293.623L594.415,297.176L595.469,297.176L596.992,293.623L596.992,297.762L598.007,297.723ZM602.379,210.66C602.361,287.75 538.92,351.176 461.829,351.176C430.346,351.174 399.758,340.596 375,321.148C408.883,294.519 428.703,253.735 428.703,210.64C428.703,167.546 408.883,126.761 375,100.132C399.765,80.665 430.368,70.075 461.868,70.073C538.97,70.073 602.417,133.518 602.418,210.621L602.379,210.66Z" style="fill:rgb(0,161,223);fill-rule:nonzero;"/>
        </g>
    </g>
    <g transform="matrix(0.14862,0,0,0.14862,289,-5.07639)">
        <g>
            <path d="M285.124,136.775L201.446,335.253L146.694,335.253L105.372,176.882C103.306,167.627 100.207,163.513 92.975,159.4C80.579,153.229 59.917,146.031 42.355,142.945L43.388,136.775L131.198,136.775C142.562,136.775 152.893,143.974 154.959,157.343L176.653,272.522L230.372,137.803L285.124,137.803L285.124,136.775ZM498.967,270.465C498.967,218.017 426.653,214.932 426.653,192.308C426.653,185.109 433.884,177.91 448.347,175.854C455.579,174.825 476.24,173.797 498.967,185.109L508.264,142.945C495.868,138.832 480.372,133.69 459.711,133.69C409.091,133.69 372.934,160.428 372.934,199.507C372.934,228.301 398.76,243.727 418.388,252.983C438.017,262.238 445.248,268.408 445.248,277.664C445.248,291.033 429.752,297.203 414.256,297.203C388.43,297.203 372.934,290.004 361.57,284.862L352.273,328.055C364.669,333.197 386.364,338.338 409.091,338.338C462.81,338.338 497.934,311.6 498.967,270.465M633.264,335.253L680.785,335.253L639.463,136.775L595.041,136.775C584.711,136.775 576.446,142.945 573.347,151.172L495.868,335.253L549.587,335.253L559.917,305.43L626.033,305.43L633.264,335.253ZM575.413,265.323L602.273,191.279L617.769,265.323L575.413,265.323ZM358.471,136.775L316.116,335.253L264.463,335.253L306.818,136.775L358.471,136.775Z" style="fill:rgb(26,31,113);fill-rule:nonzero;"/>
        </g>
    </g>
</svg>
